<?xml version="1.0" encoding="UTF-8" ?>
<svg
  width="32px"
  height="32px"
  viewBox="0 0 32 32"
  version="1.1"
  xmlns="http://www.w3.org/2000/svg"
  xmlns:xlink="http://www.w3.org/1999/xlink"
>
  <title>atom</title>
  <g id="atom" stroke="none" stroke-width="1" fill="none" fill-rule="evenodd">
    <path
      d="M15.9940006,30.9988 C7.71400064,30.9988 0.998800643,24.2824 0.999999357,15.9988 C0.997600643,  7.7152 7.71280064,1 15.9964006,1 C24.2800006,1 30.9952006,7.7164 30.9952006,16 C30.9952006,24.2824 24.2800006,30.9976 15.9940006,30.9988 Z"
      id="Path"
      fill="#F4F4F4"
      fill-rule="nonzero"
    />
    <g
      id="cosmos-atom-logo"
      transform="translate(1.000000, 1.000000)"
      fill-rule="nonzero"
    >
      <circle id="Oval" fill="#2E3148" cx="15" cy="15" r="15" />
      <circle id="Ovals" fill="#1B1E36" cx="15" cy="15" r="8.70372" />
      <path
        d="M15.03084,1.91364 C13.41168,1.91364 12.09876,7.78644 12.09876,15.03096 C12.09876,22.27548 13.41168,28.14828 15.03084,28.14828 C16.65,28.14828 17.96292,22.27548 17.96292,15.03096 C17.96292,7.78644 16.65,1.91364 15.03084,1.91364 Z M15.23328,27.408 C15.04812,27.65496 14.86296,27.46968 14.86296,27.46968 C14.11728,26.60568 13.74444,25.00056 13.74444,25.00056 C12.44016,20.80308 12.7506,11.79072 12.7506,11.79072 C13.36356,4.63584 14.4786,2.94564 14.85804,2.5704 C14.9380297,2.49134194 15.0632697,2.48121744 15.15492,2.5464 C15.70548,2.93652 16.16724,4.56804 16.16724,4.56804 C17.5308,9.62976 17.40732,14.38284 17.40732,14.38284 C17.5308,18.51864 16.72404,23.14824 16.72404,23.14824 C16.10304,26.66664 15.23328,27.408 15.23328,27.408 Z"
        id="Shape"
        fill="#6F7390"
      />
      <path
        d="M26.40864,8.50308 C25.60248,7.09812 19.85556,8.88204 13.56864,12.48708 C7.28172,16.09212 2.847,20.15376 3.65256,21.55812 C4.45812,22.96248 10.20564,21.17916 16.49256,17.57412 C22.77948,13.96908 27.2142,9.90744 26.40864,8.50308 L26.40864,8.50308 Z M4.39632,21.3654 C4.08768,21.32652 4.1574,21.07284 4.1574,21.07284 C4.536,19.99632 5.7408,18.87408 5.7408,18.87408 C8.73396,15.65376 16.70628,11.43828 16.70628,11.43828 C23.21676,8.40924 25.239,8.53704 25.752,8.67828 C25.8607235,8.70862703 25.9317045,8.81296917 25.92,8.92524 C25.85832,9.59724 24.66996,10.80924 24.66996,10.80924 C20.96052,14.51232 16.776,16.77096 16.776,16.77096 C13.25004,18.93696 8.83284,20.54004 8.83284,20.54004 C5.47176,21.7512 4.39644,21.3654 4.39644,21.3654 L4.39644,21.3654 L4.39632,21.3654 Z"
        id="Shape"
        fill="#6F7390"
      />
      <path
        d="M26.3802,21.60492 C27.1926,20.20368 22.76904,16.12344 16.5042,12.49128 C10.23936,8.85912 4.49316,7.05312 3.68148,8.45676 C2.8698,9.8604 7.29264,13.93824 13.56108,17.5704 C19.82952,21.20256 25.56852,23.00868 26.3802,21.60492 Z M4.2198,8.9982 C4.0998,8.71368 4.35312,8.64516 4.35312,8.64516 C5.47464,8.43336 7.05,8.916 7.05,8.916 C11.3358,9.89196 18.978,14.679 18.978,14.679 C24.86196,18.79632 25.76436,20.60988 25.8996,21.12468 C25.9279937,21.2336907 25.8737908,21.3473141 25.7712,21.39384 C25.15764,21.67476 23.51436,21.2562 23.51436,21.2562 C18.44952,19.89816 14.39892,17.40996 14.39892,17.40996 C10.75944,15.447 7.16064,12.4266 7.16064,12.4266 C4.42608,10.12416 4.22064,9.00132 4.22064,9.00132 L4.2198,8.9982 Z"
        id="Shape"
        fill="#6F7390"
      />
      <circle id="Oval" fill="#B7B9C8" cx="15" cy="15" r="1.5432" />
      <ellipse
        id="Oval"
        fill="#B7B9C8"
        cx="21.32712"
        cy="9.07404"
        rx="1"
        ry="1"
      />
      <ellipse
        id="Oval"
        fill="#B7B9C8"
        cx="6.63576"
        cy="12.22224"
        rx="1"
        ry="1"
      />
      <ellipse
        id="Oval"
        fill="#B7B9C8"
        cx="13.179"
        cy="23.58024"
        rx="1"
        ry="1"
      />
    </g>
  </g>
</svg>
